<svg xmlns="http://www.w3.org/2000/svg" xmlns:xlink="http://www.w3.org/1999/xlink" width="36" height="26" viewBox="0 0 36 26">
  <defs>
    <linearGradient id="linear-gradient" x1="0.5" x2="0.5" y2="1" gradientUnits="objectBoundingBox">
      <stop offset="0" stop-color="#ff9902"/>
      <stop offset="1" stop-color="#ff3b14"/>
    </linearGradient>
  </defs>
  <g id="Group_126"  transform="translate(590 183.64)">
    <rect id="Rectangle_233"  width="36" height="26" transform="translate(-590 -183.64)" fill="none"/>
    <path id="Path_233"  d="M-518.284-136.735c-.27-1.188-.544-2.4-.818-3.6-.085-.375-.161-.753-.249-1.127-.181-.773-.359-.917-1.152-.917h-15.554c-.193,0-.385,0-.578,0-.783,0-.971.151-1.147.925-.326,1.432-.661,2.863-.958,4.3-.076.367-.213.472-.583.47a2.414,2.414,0,0,1-2.7-2.687q0-3.442,0-6.884a2.376,2.376,0,0,1,2.607-2.612q10.851-.006,21.7,0a2.376,2.376,0,0,1,2.6,2.62c0,2.242-.061,4.486.02,6.725A2.553,2.553,0,0,1-518.284-136.735Zm-6.682-6.695a5.245,5.245,0,0,0,.575,0,.759.759,0,0,0,.736-.747.761.761,0,0,0-.742-.794,7.1,7.1,0,0,0-1.1,0,.762.762,0,0,0-.736.8.761.761,0,0,0,.741.743A4.742,4.742,0,0,0-524.966-143.43Zm3.62,0v0c.174,0,.349.011.522,0a.766.766,0,0,0,.781-.748.76.76,0,0,0-.781-.8,7.489,7.489,0,0,0-1.044,0,.744.744,0,0,0-.727.8.737.737,0,0,0,.726.744A4.175,4.175,0,0,0-521.346-143.43Z" transform="translate(-42.935 -31.514)" fill="url(#linear-gradient)"/>
    <path id="Path_234"  d="M-479.214-68.423h-17.367c.176-.808.345-1.587.517-2.364.091-.41.213-.815.272-1.229.057-.4.21-.545.639-.544q7.252.024,14.5,0c.383,0,.553.1.631.489C-479.775-70.871-479.494-69.68-479.214-68.423Z" transform="translate(-83.599 -99.804)" fill="url(#linear-gradient)"/>
    <path id="Path_235"  d="M-424.333-17.351a7.628,7.628,0,0,1,.382-1.019,1.006,1.006,0,0,0,0-1.082,2.317,2.317,0,0,1,0-2.4,2.811,2.811,0,0,0,.2-.641.768.768,0,0,1,.887-.631.707.707,0,0,1,.645.814,3.685,3.685,0,0,1-.335,1.141,1.013,1.013,0,0,0,.005,1.037,2.326,2.326,0,0,1,0,2.443,1.969,1.969,0,0,0-.171.541.806.806,0,0,1-.872.723A.9.9,0,0,1-424.333-17.351Z" transform="translate(-148.253 -144.036)" fill="url(#linear-gradient)"/>
    <path id="Path_236"  d="M-382.314-22.224a8.1,8.1,0,0,1-.381,1.016,1.026,1.026,0,0,0,0,1.087,2.348,2.348,0,0,1,0,2.4,3.784,3.784,0,0,0-.217.694.73.73,0,0,1-.819.585.671.671,0,0,1-.675-.731,3.765,3.765,0,0,1,.3-1.2,1.109,1.109,0,0,0,0-1.092,2.348,2.348,0,0,1,0-2.4,2.566,2.566,0,0,0,.193-.592.77.77,0,0,1,.9-.677C-382.6-23.07-382.37-22.745-382.314-22.224Z" transform="translate(-183.96 -144.024)" fill="url(#linear-gradient)"/>
    <path id="Path_237"  d="M-461.111-22.189a9.036,9.036,0,0,1-.381,1.018,1.009,1.009,0,0,0-.011,1.042,2.378,2.378,0,0,1,0,2.451,2.94,2.94,0,0,0-.2.645.726.726,0,0,1-.847.61.686.686,0,0,1-.656-.8,4.02,4.02,0,0,1,.316-1.145,1.035,1.035,0,0,0,.008-1.041,2.352,2.352,0,0,1-.009-2.448,2.094,2.094,0,0,0,.185-.541c.117-.516.41-.768.861-.718S-461.154-22.737-461.111-22.189Z" transform="translate(-113.449 -144.044)" fill="url(#linear-gradient)"/>
  </g>
</svg>
