<svg id="information-button" xmlns="http://www.w3.org/2000/svg" xmlns:xlink="http://www.w3.org/1999/xlink" width="21.495" height="21.495" viewBox="0 0 21.495 21.495">
  <defs>
    <linearGradient id="linear-gradient" x1="0.5" x2="0.5" y2="1" gradientUnits="objectBoundingBox">
      <stop offset="0" stop-color="#ff9902"/>
      <stop offset="1" stop-color="#ff3b14"/>
    </linearGradient>
  </defs>
  <path id="Path_251"  d="M10.747,0A10.748,10.748,0,1,0,21.5,10.747,10.748,10.748,0,0,0,10.747,0Zm2.237,16.657q-.83.328-1.324.5a3.492,3.492,0,0,1-1.148.172,2.288,2.288,0,0,1-1.562-.49,1.583,1.583,0,0,1-.556-1.244,4.518,4.518,0,0,1,.041-.6c.028-.2.073-.433.134-.691l.692-2.446c.061-.235.114-.458.156-.665a2.949,2.949,0,0,0,.062-.576.887.887,0,0,0-.193-.652,1.1,1.1,0,0,0-.74-.183A1.941,1.941,0,0,0,8,9.863c-.187.057-.348.109-.481.16L7.7,9.269Q8.377,8.992,9,8.8a3.844,3.844,0,0,1,1.174-.2,2.246,2.246,0,0,1,1.539.482,1.6,1.6,0,0,1,.54,1.252q0,.16-.037.561a3.756,3.756,0,0,1-.138.738l-.689,2.438c-.056.2-.106.419-.152.67a3.541,3.541,0,0,0-.066.57.818.818,0,0,0,.217.662,1.217,1.217,0,0,0,.752.177,2.183,2.183,0,0,0,.57-.088,3.238,3.238,0,0,0,.46-.155Zm-.122-9.9a1.644,1.644,0,0,1-1.16.448,1.661,1.661,0,0,1-1.165-.448,1.429,1.429,0,0,1-.485-1.085,1.443,1.443,0,0,1,.485-1.088A1.649,1.649,0,0,1,11.7,4.133a1.631,1.631,0,0,1,1.16.452,1.466,1.466,0,0,1,0,2.174Z" fill="url(#linear-gradient)"/>
</svg>
