<svg xmlns="http://www.w3.org/2000/svg" width="22.473" height="22.473" viewBox="0 0 22.473 22.473">
  <path id="Icon_awesome-arrow-circle-left"  d="M11.8,23.036A11.237,11.237,0,1,1,23.036,11.8,11.235,11.235,0,0,1,11.8,23.036Zm1.309-6.506-3.421-3.28h8.273a1.085,1.085,0,0,0,1.087-1.087v-.725a1.085,1.085,0,0,0-1.087-1.087H9.688l3.421-3.28a1.089,1.089,0,0,0,.018-1.554l-.5-.494a1.083,1.083,0,0,0-1.536,0L5.08,11.029a1.083,1.083,0,0,0,0,1.536l6.013,6.013a1.083,1.083,0,0,0,1.536,0l.5-.494A1.089,1.089,0,0,0,13.109,16.529Z" transform="translate(-0.563 -0.563)" fill="#9e9e9e"/>
</svg>
