<svg xmlns="http://www.w3.org/2000/svg" width="13.613" height="10.21" viewBox="0 0 13.613 10.21">
  <g id="Icon_ionic-ios-camera" transform="translate(0)">
    <path id="Path_195"  d="M18.034,17.331A2.038,2.038,0,1,1,16,15.293,2.038,2.038,0,0,1,18.034,17.331Z" transform="translate(-9.189 -11.553)" fill="#fff"/>
    <path id="Path_196"  d="M17.032,9.577H15.1a.575.575,0,0,1-.425-.191c-1.007-1.127-1.386-1.51-1.8-1.51H9.846c-.415,0-.822.383-1.833,1.514a.564.564,0,0,1-.422.188H7.446V9.293a.284.284,0,0,0-.284-.284H6.241a.284.284,0,0,0-.284.284v.284H5.691A1.15,1.15,0,0,0,4.5,10.665V16.9a1.227,1.227,0,0,0,1.188,1.181H17.032A1.136,1.136,0,0,0,18.113,16.9V10.665A1.057,1.057,0,0,0,17.032,9.577Zm-5.583,7.1A3.031,3.031,0,1,1,14.334,13.8,3.034,3.034,0,0,1,11.448,16.681Zm3.261-5.048a.461.461,0,1,1,.461-.461A.46.46,0,0,1,14.71,11.633Z" transform="translate(-4.5 -7.875)" fill="#fff"/>
  </g>
</svg>
