<svg id="calendar_1_"  xmlns="http://www.w3.org/2000/svg" xmlns:xlink="http://www.w3.org/1999/xlink" width="26.487" height="26.487" viewBox="0 0 26.487 26.487">
  <defs>
    <linearGradient id="linear-gradient" x1="0.5" x2="0.5" y2="1" gradientUnits="objectBoundingBox">
      <stop offset="0" stop-color="#ff8106"/>
      <stop offset="1" stop-color="#ff3b14"/>
    </linearGradient>
  </defs>
  <g id="Group_46" >
    <path id="Path_29"  d="M22.866,2.328h-.957V1.681a1.681,1.681,0,1,0-3.363,0v.647H17.253V1.681a1.681,1.681,0,1,0-3.363,0v.647H12.6V1.681a1.681,1.681,0,1,0-3.363,0v.647H7.941V1.681a1.681,1.681,0,0,0-3.363,0v.647H3.621A3.625,3.625,0,0,0,0,5.949V22.866a3.625,3.625,0,0,0,3.621,3.621H22.866a3.625,3.625,0,0,0,3.621-3.621V5.949a3.625,3.625,0,0,0-3.621-3.621Zm-3.285-.647a.647.647,0,1,1,1.293,0V4.009a.647.647,0,1,1-1.293,0Zm-4.656,0a.647.647,0,0,1,1.293,0V4.009a.647.647,0,0,1-1.293,0Zm-4.656,0a.647.647,0,1,1,1.293,0V4.009a.647.647,0,1,1-1.293,0Zm-4.656,0a.647.647,0,1,1,1.293,0V4.009a.647.647,0,1,1-1.293,0ZM25.452,22.866a2.59,2.59,0,0,1-2.587,2.587H3.621a2.59,2.59,0,0,1-2.587-2.587V5.949A2.59,2.59,0,0,1,3.621,3.363h.957v.647a1.681,1.681,0,0,0,3.363,0V3.363H9.234v.647a1.681,1.681,0,0,0,3.363,0V3.363H13.89v.647a1.681,1.681,0,1,0,3.363,0V3.363h1.293v.647a1.681,1.681,0,0,0,3.363,0V3.363h.957a2.59,2.59,0,0,1,2.587,2.587Z" transform="translate(0)" fill="url(#linear-gradient)"/>
    <path id="Path_30" d="M65.538,135H53.588a.517.517,0,1,0,0,1.035h11.95a.269.269,0,0,1,.259.259v14.588a.269.269,0,0,1-.259.259H46.293a.269.269,0,0,1-.259-.259V136.293a.269.269,0,0,1,.259-.259h2.638a.517.517,0,1,0,0-1.035H46.293A1.3,1.3,0,0,0,45,136.293v14.588a1.3,1.3,0,0,0,1.293,1.293H65.538a1.3,1.3,0,0,0,1.293-1.293V136.293A1.3,1.3,0,0,0,65.538,135Z" transform="translate(-42.672 -128.016)" fill="url(#linear-gradient)"/>
    <path id="Path_31"  d="M162.379,214.481a.955.955,0,0,0,.214.959l1.537,1.623-.3,2.146a.957.957,0,0,0,1.356,1.009l2.022-.962,1.931.944a.957.957,0,0,0,1.393-.971l-.29-2.218,1.512-1.563a.957.957,0,0,0-.511-1.608l-2.2-.409-1.019-1.921a.957.957,0,0,0-1.687-.012l-1.068,1.964-2.145.376A.955.955,0,0,0,162.379,214.481Zm3.314-.043a.517.517,0,0,0,.365-.262l1.118-2.055,1.07,2.016a.517.517,0,0,0,.362.266l2.3.429-1.587,1.64a.517.517,0,0,0-.141.427l.3,2.32-2.049-1a.518.518,0,0,0-.449,0l-2.115,1.007.32-2.26a.517.517,0,0,0-.137-.428l-1.611-1.7Z" transform="translate(-153.933 -200.084)" fill="url(#linear-gradient)"/>
    <path id="Path_32"  d="M156.518,136.035a.517.517,0,0,0,0-1.035h0a.517.517,0,0,0,0,1.035Z" transform="translate(-147.931 -128.016)" fill="url(#linear-gradient)"/>
  </g>
</svg>
