<svg xmlns="http://www.w3.org/2000/svg" width="26.976" height="16.86" viewBox="0 0 26.976 16.86">
  <g id="google-plus" transform="translate(0 -96)">
    <g id="Group_14"  transform="translate(18.546 99.372)">
      <g id="Group_13" >
        <path id="Path_6"  d="M357.058,163.372V160h-1.686v3.372H352v1.686h3.372v3.372h1.686v-3.372h3.372v-1.686Z" transform="translate(-352 -160)" fill="#fff"/>
      </g>
    </g>
    <g id="Group_16"  transform="translate(0 96)">
      <g id="Group_15" >
        <path id="Path_7"  d="M8.43,102.744v3.372H13.2a5.058,5.058,0,1,1-4.77-6.744,4.983,4.983,0,0,1,3.276,1.221l2.215-2.542A8.354,8.354,0,0,0,8.43,96a8.43,8.43,0,1,0,8.43,8.43v-1.686Z" transform="translate(0 -96)" fill="#fff"/>
      </g>
    </g>
  </g>
</svg>
