<svg xmlns="http://www.w3.org/2000/svg" xmlns:xlink="http://www.w3.org/1999/xlink" width="27.651" height="28.647" viewBox="0 0 27.651 28.647">
  <defs>
    <linearGradient id="linear-gradient" x1="0.5" x2="0.5" y2="1" gradientUnits="objectBoundingBox">
      <stop offset="0" stop-color="#ff8106"/>
      <stop offset="1" stop-color="#ff3b14"/>
    </linearGradient>
    <linearGradient id="linear-gradient-8" x1="0.5" x2="0.5" y2="1" gradientUnits="objectBoundingBox">
      <stop offset="0" stop-color="#ff9902"/>
      <stop offset="1" stop-color="#ff3b14"/>
    </linearGradient>
  </defs>
  <g id="hotel" transform="translate(0 1)">
    <g id="Group_5"  transform="translate(4.147 12.441)">
      <g id="Group_4">
        <path id="Path_8"  d="M80.475,230.4H77.25a.461.461,0,0,0-.461.461v4.608a.461.461,0,0,0,.461.461h3.226a.461.461,0,0,0,.461-.461v-4.608A.461.461,0,0,0,80.475,230.4Zm-.461,4.608h-2.3v-3.686h2.3Z" transform="translate(-76.789 -230.404)" fill="url(#linear-gradient)"/>
      </g>
    </g>
    <g id="Group_7" transform="translate(11.98 12.441)">
      <g id="Group_6" >
        <path id="Path_9"  d="M225.52,230.4h-3.226a.461.461,0,0,0-.461.461v4.608a.461.461,0,0,0,.461.461h3.226a.461.461,0,0,0,.461-.461v-4.608A.461.461,0,0,0,225.52,230.4Zm-.461,4.608h-2.3v-3.686h2.3Z" transform="translate(-221.834 -230.404)" fill="url(#linear-gradient)"/>
      </g>
    </g>
    <g id="Group_9"  transform="translate(11.98 19.814)">
      <g id="Group_8" >
        <path id="Path_10"  d="M225.52,366.917h-3.226a.461.461,0,0,0-.461.461v4.608a.461.461,0,0,0,.461.461h3.226a.461.461,0,0,0,.461-.461v-4.608A.461.461,0,0,0,225.52,366.917Zm-.461,4.608h-2.3v-3.686h2.3Z" transform="translate(-221.834 -366.917)" fill="url(#linear-gradient)"/>
      </g>
    </g>
    <g id="Group_11" transform="translate(19.353 12.441)">
      <g id="Group_10">
        <path id="Path_11" d="M362.034,230.4h-3.226a.461.461,0,0,0-.461.461v4.608a.461.461,0,0,0,.461.461h3.226a.461.461,0,0,0,.461-.461v-4.608A.461.461,0,0,0,362.034,230.4Zm-.461,4.608h-2.3v-3.686h2.3Z" transform="translate(-358.348 -230.404)" fill="url(#linear-gradient)"/>
      </g>
    </g>
    <g id="Group_13" transform="translate(4.147 19.814)">
      <g id="Group_12" >
        <path id="Path_12" d="M80.475,366.917H77.25a.461.461,0,0,0-.461.461v4.608a.461.461,0,0,0,.461.461h3.226a.461.461,0,0,0,.461-.461v-4.608A.461.461,0,0,0,80.475,366.917Zm-.461,4.608h-2.3v-3.686h2.3Z" transform="translate(-76.789 -366.917)" fill="url(#linear-gradient)"/>
      </g>
    </g>
    <g id="Group_15"  transform="translate(19.353 19.814)">
      <g id="Group_14" >
        <path id="Path_13"  d="M362.034,366.917h-3.226a.461.461,0,0,0-.461.461v4.608a.461.461,0,0,0,.461.461h3.226a.461.461,0,0,0,.461-.461v-4.608A.461.461,0,0,0,362.034,366.917Zm-.461,4.608h-2.3v-3.686h2.3Z" transform="translate(-358.348 -366.917)" fill="url(#linear-gradient)"/>
      </g>
    </g>
    <g id="Group_17" transform="translate(0 0)">
      <g id="Group_16" >
        <path id="Path_14"  d="M25.8,25.763V11.1h.461a.461.461,0,0,0,.461-.461v-2.3a.461.461,0,0,0-.461-.461H25.8V6.027a.461.461,0,0,0-.461-.461h-.922V-.5a.461.461,0,0,0-.461-.461H3.686A.461.461,0,0,0,3.226-.5V5.566H2.3a.461.461,0,0,0-.461.461V7.87H1.382a.461.461,0,0,0-.461.461v2.3a.461.461,0,0,0,.461.461h.461V26.763H0v.922H27.651v-.922l-1.847-1ZM4.147-.041H23.5V5.566H4.147ZM2.765,6.488H24.883V7.87H2.765ZM24.883,26.763H2.765V11.1H24.883V26.763ZM2.3,10.174H1.843V8.792H25.8v1.382H2.3Z" transform="translate(0 -0.037)" fill="url(#linear-gradient)"/>
      </g>
    </g>
    <g id="Group_19"  transform="translate(9.186 1.315)">
      <g id="Group_18"  transform="translate(0 0)">
        <path id="Path_15"  d="M191.537,30.148a1.435,1.435,0,0,0-.309-.485,1.419,1.419,0,0,0-.479-.32,1.6,1.6,0,0,0-.62-.116,1.623,1.623,0,0,0-.621.115,1.408,1.408,0,0,0-.481.32,1.439,1.439,0,0,0-.31.486,1.752,1.752,0,0,0,0,1.221,1.44,1.44,0,0,0,.31.486,1.408,1.408,0,0,0,.481.32,1.73,1.73,0,0,0,1.241,0,1.4,1.4,0,0,0,.479-.32,1.447,1.447,0,0,0,.309-.486,1.751,1.751,0,0,0,0-1.221Zm-.528,1.053a.925.925,0,0,1-.188.332.814.814,0,0,1-.3.208,1.114,1.114,0,0,1-.791,0,.821.821,0,0,1-.3-.208.929.929,0,0,1-.19-.332,1.509,1.509,0,0,1,0-.885.939.939,0,0,1,.19-.333.816.816,0,0,1,.3-.209,1.114,1.114,0,0,1,.791,0,.809.809,0,0,1,.3.209.937.937,0,0,1,.188.333,1.534,1.534,0,0,1,0,.885Z" transform="translate(-188.607 -29.226)" stroke="#ff3b14" stroke-width="0.2" fill="url(#linear-gradient-8)"/>
      </g>
    </g>
    <g id="Group_21"  transform="translate(5.719 1.348)">
      <g id="Group_20" transform="translate(0 0)">
        <path id="Path_16"  d="M135.555,29.84v1.29h-1.406V29.84h-.562v3h.562v-1.31h1.406v1.31h.562v-3Z" transform="translate(-133.587 -29.84)" stroke="#ff3b14" stroke-width="0.2" fill="url(#linear-gradient-8)"/>
      </g>
    </g>
    <g id="Group_23"  transform="translate(19.841 1.348)">
      <g id="Group_22"  transform="translate(0 0)">
        <path id="Path_17"  d="M340.246,32.378V29.84h-.558v3h1.758v-.46Z" transform="translate(-339.688 -29.84)" stroke="#ff3b14" stroke-width="0.2" fill="url(#linear-gradient-8)"/>
      </g>
    </g>
    <g id="Group_25"  transform="translate(13.164 1.348)">
      <g id="Group_24"  transform="translate(0 0)">
        <path id="Path_18"  d="M245.353,29.84V30.3h.906v2.54h.558V30.3h.9V29.84Z" transform="translate(-245.353 -29.84)" stroke="#ff3b14" stroke-width="0.2" fill="url(#linear-gradient-8)"/>
      </g>
    </g>
    <g id="Group_27" transform="translate(16.467 1.348)">
      <g id="Group_26"  transform="translate(0 0)">
        <path id="Path_19"  d="M297.618,30.284V29.84h-1.891v3h1.891v-.446h-1.329v-.848h1.047v-.429h-1.047v-.831Z" transform="translate(-295.727 -29.84)" stroke="#ff3b14" stroke-width="0.2" fill="url(#linear-gradient-8)"/>
      </g>
    </g>
  </g>
</svg>
