<svg xmlns="http://www.w3.org/2000/svg" xmlns:xlink="http://www.w3.org/1999/xlink" width="16.78" height="26.849" viewBox="0 0 16.78 26.849">
  <defs>
    <linearGradient id="linear-gradient" x1="0.5" x2="0.5" y2="1" gradientUnits="objectBoundingBox">
      <stop offset="0" stop-color="#ff9902"/>
      <stop offset="1" stop-color="#ff3b14"/>
    </linearGradient>
  </defs>
  <path id="Icon_metro-location"  d="M16.745,1.928a8.39,8.39,0,0,0-8.39,8.39c0,8.39,8.39,18.458,8.39,18.458s8.39-10.068,8.39-18.458a8.39,8.39,0,0,0-8.39-8.39Zm0,13.529a5.139,5.139,0,1,1,5.139-5.139A5.139,5.139,0,0,1,16.745,15.457Zm-3.251-5.139a3.251,3.251,0,1,1,3.251,3.251A3.251,3.251,0,0,1,13.494,10.318Z" transform="translate(-8.355 -1.928)" fill="url(#linear-gradient)"/>
</svg>
