<svg xmlns="http://www.w3.org/2000/svg" xmlns:xlink="http://www.w3.org/1999/xlink" width="16.035" height="15.643" viewBox="0 0 16.035 15.643">
  <defs>
    <linearGradient id="linear-gradient" x1="0.5" x2="0.5" y2="1" gradientUnits="objectBoundingBox">
      <stop offset="0" stop-color="#ff9902"/>
      <stop offset="1" stop-color="#ff3b14"/>
    </linearGradient>
  </defs>
  <path id="Path_244"  d="M-341.311,99.575a1.854,1.854,0,0,0-.783-.969c-1.567-.725-3.158-1.411-4.782-2a2.412,2.412,0,0,0-1.478.212c-1.367.518-2.724,1.072-4.05,1.687a2.223,2.223,0,0,0-1.1.969c-.719,1.74-1.325,3.527-1.933,5.187.613,1.651,1.262,3.419,1.929,5.179.091.24.231.581.426.646,1.906.641,3.824,1.687,5.748,1.708,1.829.02,3.678-1.022,5.493-1.664.252-.089.412-.547.536-.865.657-1.678,1.291-3.364,1.9-4.971C-340.048,102.945-340.649,101.248-341.311,99.575Zm-6.164,9.918a4.77,4.77,0,0,1-4.77-4.77,4.77,4.77,0,0,1,4.77-4.77,4.77,4.77,0,0,1,4.77,4.77A4.77,4.77,0,0,1-347.475,109.493Z" transform="translate(355.436 -96.556)" fill="url(#linear-gradient)"/>
</svg>
