<svg xmlns="http://www.w3.org/2000/svg" xmlns:xlink="http://www.w3.org/1999/xlink" width="16.035" height="15.643" viewBox="0 0 16.035 15.643">
  <defs>
    <linearGradient id="linear-gradient" x1="0.5" x2="0.5" y2="1" gradientUnits="objectBoundingBox">
      <stop offset="0" stop-color="#ff9902"/>
      <stop offset="1" stop-color="#ff3b14"/>
    </linearGradient>
  </defs>
  <path id="Path_243" TermsScreen="Path 243" d="M-293.568,104.7c-.612,1.607-1.245,3.294-1.9,4.971-.125.318-.285.776-.536.865-1.816.642-3.665,1.684-5.493,1.664-1.924-.021-3.842-1.067-5.749-1.708-.194-.065-.334-.406-.425-.646-.668-1.761-1.317-3.528-1.93-5.179.608-1.66,1.215-3.448,1.933-5.187a2.223,2.223,0,0,1,1.1-.969c1.326-.615,2.682-1.169,4.05-1.687a2.413,2.413,0,0,1,1.478-.212c1.624.584,3.215,1.27,4.782,2a1.859,1.859,0,0,1,.783.969C-294.816,101.248-294.215,102.945-293.568,104.7Zm-9.474,4.328c2.6.425,4.375-.114,5.436-2.08a4.156,4.156,0,0,0-.584-5.2c-1.176-1.227-2.5-2.163-4.538-1.135C-300.37,103.394-300.061,106.042-303.042,109.027Z" transform="translate(309.603 -96.556)" fill="url(#linear-gradient)"/>
</svg>
