<svg xmlns="http://www.w3.org/2000/svg" xmlns:xlink="http://www.w3.org/1999/xlink" width="16.035" height="15.643" viewBox="0 0 16.035 15.643">
  <defs>
    <linearGradient id="linear-gradient" x1="0.5" x2="0.5" y2="1" gradientUnits="objectBoundingBox">
      <stop offset="0" stop-color="#ff9902"/>
      <stop offset="1" stop-color="#ff3b14"/>
    </linearGradient>
  </defs>
  <g id="Group_129"  transform="translate(394.749 -96.556)">
    <path id="Path_245"  d="M-380.624,99.575a1.857,1.857,0,0,0-.783-.969c-1.567-.725-3.158-1.411-4.782-2a2.413,2.413,0,0,0-1.478.212c-1.367.518-2.724,1.072-4.05,1.687a2.223,2.223,0,0,0-1.1.969c-.719,1.74-1.326,3.527-1.933,5.187.613,1.651,1.262,3.419,1.93,5.179.091.24.231.581.425.646,1.907.641,3.824,1.687,5.749,1.708,1.828.02,3.677-1.022,5.493-1.664.251-.089.411-.547.536-.865.658-1.678,1.291-3.364,1.9-4.971C-379.361,102.945-379.962,101.248-380.624,99.575Zm-6.164,9.918a4.77,4.77,0,0,1-4.77-4.77,4.77,4.77,0,0,1,4.77-4.77,4.77,4.77,0,0,1,4.77,4.77A4.77,4.77,0,0,1-386.788,109.493Z" transform="translate(0)" fill="url(#linear-gradient)"/>
    <circle id="Ellipse_45"  cx="2.526" cy="2.526" r="2.526" transform="translate(-389.22 102.352)" fill="url(#linear-gradient)"/>
  </g>
</svg>
