<svg xmlns="http://www.w3.org/2000/svg" width="27.947" height="27.947" viewBox="0 0 27.947 27.947">
  <g id="plane" transform="translate(0.275 0.15)">
    <g id="Group_3"  transform="translate(0 0)">
      <path id="Path_7"  d="M27.522,3.275A3.241,3.241,0,0,0,24.282,0h-.035a3.217,3.217,0,0,0-2.305,1l-4.817,5.02L4.519,1.845.8,5.568l10.534,6.486L7,16.571l-3.4-.559L0,19.607,5.862,21.66l2.053,5.862,3.595-3.595-.559-3.4,4.517-4.334,6.486,10.534L25.677,23,21.505,10.4l5.02-4.817A3.217,3.217,0,0,0,27.522,3.275ZM25.407,4.415,19.653,9.938l4.179,12.627-1.574,1.574-6.464-10.5L9.221,19.949l.562,3.423L8.59,24.565,7.129,20.393,2.957,18.932,4.15,17.739l3.423.562,6.308-6.573L3.383,5.265,4.957,3.69,17.584,7.869l5.522-5.755a1.615,1.615,0,0,1,1.157-.5h.017a1.627,1.627,0,0,1,1.126,2.8Z" fill="#ff8106" stroke="#fff" stroke-width="0.3"/>
    </g>
  </g>
</svg>
