<svg xmlns="http://www.w3.org/2000/svg" xmlns:xlink="http://www.w3.org/1999/xlink" width="22.772" height="25.859" viewBox="0 0 22.772 25.859">
  <defs>
    <linearGradient id="linear-gradient" x1="0.5" x2="0.5" y2="1" gradientUnits="objectBoundingBox">
      <stop offset="0" stop-color="#ff9902"/>
      <stop offset="1" stop-color="#ff3b14"/>
    </linearGradient>
  </defs>
  <g id="like" transform="translate(-30.556)">
    <g id="Group_148"  transform="translate(47.256 4.554)">
      <g id="Group_147">
        <path id="Path_273"  d="M363.484,90.17h-1.518a.759.759,0,0,0,0,1.518h1.518a.759.759,0,0,0,0-1.518Z" transform="translate(-361.207 -90.17)" fill="url(#linear-gradient)"/>
      </g>
    </g>
    <g id="Group_150"  transform="translate(39.665 0)">
      <g id="Group_149" transform="translate(0 0)">
        <path id="Path_274" d="M213.1,1.937,212.345.419a.759.759,0,1,0-1.358.679l.759,1.518a.759.759,0,1,0,1.358-.679Z" transform="translate(-210.907 0)" fill="url(#linear-gradient)"/>
      </g>
    </g>
    <g id="Group_152" transform="translate(44.978 0)">
      <g id="Group_151" >
        <path id="Path_275"  d="M317.97.08a.761.761,0,0,0-1.018.339l-.759,1.518a.759.759,0,0,0,1.358.679L318.31,1.1A.759.759,0,0,0,317.97.08Z" transform="translate(-316.112 0)" fill="url(#linear-gradient)"/>
      </g>
    </g>
    <g id="Group_154"  transform="translate(36.629 4.554)">
      <g id="Group_153" >
        <path id="Path_276"  d="M153.07,90.17h-1.518a.759.759,0,1,0,0,1.518h1.518a.759.759,0,0,0,0-1.518Z" transform="translate(-150.793 -90.17)" fill="url(#linear-gradient)"/>
      </g>
    </g>
    <g id="Group_156"  transform="translate(30.556 12.195)">
      <g id="Group_155"  transform="translate(0)">
        <path id="Path_277"  d="M34.351,241.468H31.315a.759.759,0,0,0-.759.759v12.145a.759.759,0,0,0,.759.759h3.036a.759.759,0,0,0,.759-.759V242.227A.759.759,0,0,0,34.351,241.468Z" transform="translate(-30.556 -241.468)" fill="url(#linear-gradient)"/>
      </g>
    </g>
    <g id="Group_158"  transform="translate(36.629 4.605)">
      <g id="Group_157"  transform="translate(0)">
        <path id="Path_278"  d="M167.479,100.775a2.387,2.387,0,0,0-2.419-2.012h-5.918a13.106,13.106,0,0,0,.761-4.488,3.161,3.161,0,0,0-3.169-3.1h-.626a.759.759,0,0,0-.759.759c0,1.755-.683,4.924-1.973,6.213a8.409,8.409,0,0,1-2.582,1.668V111.2a17.732,17.732,0,0,0,6.261,1.224h4.965a2.308,2.308,0,0,0,2.276-3.116,2.278,2.278,0,0,0,1.518-3.036,2.278,2.278,0,0,0,1.1-3.715A2.272,2.272,0,0,0,167.479,100.775Z" transform="translate(-150.794 -91.172)" fill="url(#linear-gradient)"/>
      </g>
    </g>
  </g>
</svg>
