<svg xmlns="http://www.w3.org/2000/svg" xmlns:xlink="http://www.w3.org/1999/xlink" width="20.467" height="24.985" viewBox="0 0 20.467 24.985">
  <defs>
    <linearGradient id="linear-gradient" x1="0.5" x2="0.5" y2="1" gradientUnits="objectBoundingBox">
      <stop offset="0" stop-color="#ff9902"/>
      <stop offset="1" stop-color="#ff3b14"/>
    </linearGradient>
  </defs>
  <g id="Group_128"  transform="translate(1560.866 84.014)">
    <path id="Path_240"  d="M-1560.843-77.681h3.945c1.628,0,2.362-.728,2.362-2.339,0-1.313,0-2.627,0-3.971.178-.009.32-.022.461-.022q4.562,0,9.124,0c1.126,0,1.644.514,1.644,1.632q0,9.441,0,18.882a1.423,1.423,0,0,1-1.636,1.639q-7.172,0-14.344,0a1.4,1.4,0,0,1-1.575-1.513q-.012-7,0-14C-1560.864-77.455-1560.854-77.533-1560.843-77.681Zm9.017,4.274q2.241,0,4.482,0c.177,0,.4.037.521-.054.2-.15.449-.387.453-.592s-.238-.453-.43-.609c-.114-.093-.342-.059-.518-.059q-4.482,0-8.963,0c-.177,0-.4-.033-.518.059-.193.157-.437.4-.433.609s.26.435.454.594c.1.084.312.052.473.052Q-1554.066-73.4-1551.825-73.407Zm.028,3.534q2.289,0,4.579,0c.577,0,.892-.246.882-.671s-.3-.634-.865-.637c-1.039-.005-2.078,0-3.117,0-2.013,0-4.027,0-6.04,0-.382,0-.726.054-.88.457-.166.436.2.851.765.853C-1554.914-69.868-1553.356-69.873-1551.8-69.873Zm-2.4,3.325c.747,0,1.494,0,2.24,0,.494,0,.809-.268.805-.654s-.309-.637-.816-.639q-2.265-.008-4.53,0c-.49,0-.762.235-.774.622s.3.665.784.669C-1555.72-66.543-1554.957-66.548-1554.194-66.548Z" fill="url(#linear-gradient)"/>
    <path id="Path_241"  d="M-1530.932-34.872h12.906a2.206,2.206,0,0,0,2.486-2.492q0-8.49,0-16.98v-.566c1.415-.269,2.124.315,2.124,1.706q0,9.319,0,18.639c0,1.246-.5,1.742-1.743,1.742h-14.052C-1530.588-32.823-1531.1-33.419-1530.932-34.872Z" transform="translate(-26.984 -26.206)" fill="url(#linear-gradient)"/>
    <path id="Path_242"  d="M-1557.426-77.726c-.6,0-1.206.031-1.8-.016a.813.813,0,0,1-.615-.344.846.846,0,0,1,.18-.722q2.055-2.118,4.172-4.175a.779.779,0,0,1,.673-.193.844.844,0,0,1,.386.631c.037,1.2.027,2.406.013,3.609a1.164,1.164,0,0,1-1.2,1.209c-.032,0-.065,0-.1,0Z" transform="translate(-0.899 -0.734)" fill="url(#linear-gradient)"/>
  </g>
</svg>
