<svg id="Group_136"  xmlns="http://www.w3.org/2000/svg" xmlns:xlink="http://www.w3.org/1999/xlink" width="19.131" height="21.495" viewBox="0 0 19.131 21.495">
  <defs>
    <linearGradient id="linear-gradient" x1="0.5" x2="0.5" y2="1" gradientUnits="objectBoundingBox">
      <stop offset="0" stop-color="#ff9902"/>
      <stop offset="1" stop-color="#ff3b14"/>
    </linearGradient>
  </defs>
  <g id="Group_135"  transform="translate(0)">
    <path id="Path_249"  d="M40.907,281.1a4.675,4.675,0,0,1-3.784,1.931h-2.18a1.742,1.742,0,0,1-1.637-1.147,5.53,5.53,0,0,1-.881-.348,5.929,5.929,0,0,1-1.645-1.217,7.022,7.022,0,0,0-5.507,6.855v.439a1.092,1.092,0,0,0,1.092,1.092H43.313a1.092,1.092,0,0,0,1.092-1.092v-.439A7.017,7.017,0,0,0,40.907,281.1Z" transform="translate(-25.274 -267.215)" fill="url(#linear-gradient)"/>
    <path id="Path_250"  d="M92.852,10.857a1.243,1.243,0,0,0,1.09-.644l.017.045.005.014A4.854,4.854,0,0,0,96.7,13.154a1.74,1.74,0,0,1,1.474-.815h2.18a1.22,1.22,0,0,0,.6-.161,2.464,2.464,0,0,0,.7-.813,6.286,6.286,0,0,0,.545-1.152,1.25,1.25,0,0,0,.344.4v.535a2.193,2.193,0,0,1-2.191,2.191h-2.18a.746.746,0,1,0,0,1.492h2.18a3.687,3.687,0,0,0,3.683-3.683v-.535a1.242,1.242,0,0,0,.5-1V6.5a1.242,1.242,0,0,0-.516-1.009,5.966,5.966,0,0,0-11.895,0A1.242,1.242,0,0,0,91.608,6.5V9.613A1.244,1.244,0,0,0,92.852,10.857Zm5.22-9.365a4.48,4.48,0,0,1,4.452,4.03,1.248,1.248,0,0,0-.35.432,4.258,4.258,0,0,0-8.2-.007l0,.007a1.248,1.248,0,0,0-.35-.432A4.48,4.48,0,0,1,98.072,1.493Z" transform="translate(-88.506)" fill="url(#linear-gradient)"/>
  </g>
</svg>
